<mxfile host="app.diagrams.net" modified="2022-10-10T09:16:08.857Z" agent="5.0 (Macintosh; Intel Mac OS X 10_15_7) AppleWebKit/537.36 (KHTML, like Gecko) Chrome/105.0.0.0 Safari/537.36" etag="fxnkK53YGx_6q6isZ_Xu" version="20.4.0" type="github">
  <diagram id="HUPfTMvr-G08IstzgSRJ" name="第 1 页">
    <mxGraphModel dx="946" dy="532" grid="1" gridSize="10" guides="1" tooltips="1" connect="1" arrows="1" fold="1" page="1" pageScale="1" pageWidth="827" pageHeight="1169" math="0" shadow="0">
      <root>
        <mxCell id="0" />
        <mxCell id="1" parent="0" />
        <mxCell id="ySaaE-eIBbRKnYDDOl5w-20" style="edgeStyle=none;rounded=0;orthogonalLoop=1;jettySize=auto;html=1;" edge="1" parent="1" source="ySaaE-eIBbRKnYDDOl5w-1" target="ySaaE-eIBbRKnYDDOl5w-4">
          <mxGeometry relative="1" as="geometry" />
        </mxCell>
        <mxCell id="ySaaE-eIBbRKnYDDOl5w-21" style="edgeStyle=none;rounded=0;orthogonalLoop=1;jettySize=auto;html=1;entryX=0;entryY=0.5;entryDx=0;entryDy=0;" edge="1" parent="1" source="ySaaE-eIBbRKnYDDOl5w-1" target="ySaaE-eIBbRKnYDDOl5w-5">
          <mxGeometry relative="1" as="geometry" />
        </mxCell>
        <mxCell id="ySaaE-eIBbRKnYDDOl5w-22" style="edgeStyle=none;rounded=0;orthogonalLoop=1;jettySize=auto;html=1;entryX=0;entryY=0.5;entryDx=0;entryDy=0;" edge="1" parent="1" source="ySaaE-eIBbRKnYDDOl5w-1" target="ySaaE-eIBbRKnYDDOl5w-6">
          <mxGeometry relative="1" as="geometry" />
        </mxCell>
        <mxCell id="ySaaE-eIBbRKnYDDOl5w-23" style="edgeStyle=none;rounded=0;orthogonalLoop=1;jettySize=auto;html=1;entryX=0;entryY=0.5;entryDx=0;entryDy=0;" edge="1" parent="1" source="ySaaE-eIBbRKnYDDOl5w-1" target="ySaaE-eIBbRKnYDDOl5w-16">
          <mxGeometry relative="1" as="geometry" />
        </mxCell>
        <mxCell id="ySaaE-eIBbRKnYDDOl5w-24" style="edgeStyle=none;rounded=0;orthogonalLoop=1;jettySize=auto;html=1;entryX=0;entryY=0.5;entryDx=0;entryDy=0;" edge="1" parent="1" source="ySaaE-eIBbRKnYDDOl5w-1" target="ySaaE-eIBbRKnYDDOl5w-14">
          <mxGeometry relative="1" as="geometry" />
        </mxCell>
        <mxCell id="ySaaE-eIBbRKnYDDOl5w-1" value="User" style="shape=umlActor;verticalLabelPosition=bottom;verticalAlign=top;html=1;outlineConnect=0;" vertex="1" parent="1">
          <mxGeometry x="100" y="90" width="30" height="60" as="geometry" />
        </mxCell>
        <mxCell id="ySaaE-eIBbRKnYDDOl5w-18" value="" style="edgeStyle=orthogonalEdgeStyle;rounded=0;orthogonalLoop=1;jettySize=auto;html=1;" edge="1" parent="1" source="ySaaE-eIBbRKnYDDOl5w-2" target="ySaaE-eIBbRKnYDDOl5w-11">
          <mxGeometry relative="1" as="geometry" />
        </mxCell>
        <mxCell id="ySaaE-eIBbRKnYDDOl5w-19" style="edgeStyle=orthogonalEdgeStyle;rounded=0;orthogonalLoop=1;jettySize=auto;html=1;" edge="1" parent="1" source="ySaaE-eIBbRKnYDDOl5w-2" target="ySaaE-eIBbRKnYDDOl5w-15">
          <mxGeometry relative="1" as="geometry" />
        </mxCell>
        <mxCell id="ySaaE-eIBbRKnYDDOl5w-2" value="Time" style="shape=umlActor;verticalLabelPosition=bottom;verticalAlign=top;html=1;outlineConnect=0;" vertex="1" parent="1">
          <mxGeometry x="100" y="470" width="30" height="60" as="geometry" />
        </mxCell>
        <mxCell id="ySaaE-eIBbRKnYDDOl5w-4" value="Register" style="shape=ellipse;html=1;strokeWidth=3;fontStyle=1;whiteSpace=wrap;align=center;perimeter=ellipsePerimeter;" vertex="1" parent="1">
          <mxGeometry x="280" y="20" width="120" height="60" as="geometry" />
        </mxCell>
        <mxCell id="ySaaE-eIBbRKnYDDOl5w-5" value="Login" style="shape=ellipse;html=1;strokeWidth=3;fontStyle=1;whiteSpace=wrap;align=center;perimeter=ellipsePerimeter;" vertex="1" parent="1">
          <mxGeometry x="280" y="100" width="120" height="60" as="geometry" />
        </mxCell>
        <mxCell id="ySaaE-eIBbRKnYDDOl5w-6" value="&lt;p style=&quot;margin: 0px; font-variant-numeric: normal; font-variant-east-asian: normal; font-weight: 400; font-stretch: normal; font-size: 13px; line-height: normal; font-family: &amp;quot;Helvetica Neue&amp;quot;; text-align: start;&quot; class=&quot;p1&quot;&gt;Record&lt;/p&gt;" style="shape=ellipse;html=1;strokeWidth=3;fontStyle=1;whiteSpace=wrap;align=center;perimeter=ellipsePerimeter;" vertex="1" parent="1">
          <mxGeometry x="265" y="180" width="150" height="50" as="geometry" />
        </mxCell>
        <mxCell id="ySaaE-eIBbRKnYDDOl5w-11" value="&lt;p style=&quot;margin: 0px; font-variant-numeric: normal; font-variant-east-asian: normal; font-weight: 400; font-stretch: normal; font-size: 13px; line-height: normal; font-family: &amp;quot;Helvetica Neue&amp;quot;; text-align: start;&quot; class=&quot;p1&quot;&gt;report of the days that fulfill&lt;/p&gt;" style="shape=ellipse;html=1;strokeWidth=3;fontStyle=1;whiteSpace=wrap;align=center;perimeter=ellipsePerimeter;" vertex="1" parent="1">
          <mxGeometry x="240" y="430" width="200" height="60" as="geometry" />
        </mxCell>
        <mxCell id="ySaaE-eIBbRKnYDDOl5w-14" value="&lt;p style=&quot;margin: 0px; font-variant-numeric: normal; font-variant-east-asian: normal; font-weight: 400; font-stretch: normal; font-size: 13px; line-height: normal; font-family: &amp;quot;Helvetica Neue&amp;quot;; text-align: start;&quot; class=&quot;p1&quot;&gt;publish in Instagram&lt;/p&gt;" style="shape=ellipse;html=1;strokeWidth=3;fontStyle=1;whiteSpace=wrap;align=center;perimeter=ellipsePerimeter;" vertex="1" parent="1">
          <mxGeometry x="232" y="340" width="216" height="60" as="geometry" />
        </mxCell>
        <mxCell id="ySaaE-eIBbRKnYDDOl5w-15" value="&lt;p style=&quot;margin: 0px; font-variant-numeric: normal; font-variant-east-asian: normal; font-weight: 400; font-stretch: normal; font-size: 13px; line-height: normal; font-family: &amp;quot;Helvetica Neue&amp;quot;; text-align: start;&quot; class=&quot;p1&quot;&gt;show a chart&lt;/p&gt;" style="shape=ellipse;html=1;strokeWidth=3;fontStyle=1;whiteSpace=wrap;align=center;perimeter=ellipsePerimeter;" vertex="1" parent="1">
          <mxGeometry x="240" y="510" width="200" height="60" as="geometry" />
        </mxCell>
        <mxCell id="ySaaE-eIBbRKnYDDOl5w-16" value="display" style="shape=ellipse;html=1;strokeWidth=3;fontStyle=1;whiteSpace=wrap;align=center;perimeter=ellipsePerimeter;" vertex="1" parent="1">
          <mxGeometry x="280" y="260" width="120" height="60" as="geometry" />
        </mxCell>
      </root>
    </mxGraphModel>
  </diagram>
</mxfile>
